<svg xmlns="http://www.w3.org/2000/svg" version="1.1" xmlns:xlink="http://www.w3.org/1999/xlink" xmlns:svgjs="http://svgjs.dev/svgjs" width="1000" height="1000" viewBox="0 0 1000 1000"><rect width="1000" height="1000" fill="#ffffff"></rect><g transform="matrix(0.7,0,0,0.7,150,281.25)"><svg viewBox="0 0 512 320" data-background-color="#ffffff" preserveAspectRatio="xMidYMid meet" height="625" width="1000" xmlns="http://www.w3.org/2000/svg" xmlns:xlink="http://www.w3.org/1999/xlink"><g id="tight-bounds" transform="matrix(1,0,0,1,0,0)"><svg viewBox="0 0 512 320" height="320" width="512"><g><svg></svg></g><g><svg viewBox="0 0 512 320" height="320" width="512"><g><path xmlns="http://www.w3.org/2000/svg" d="M96 160c0-88.366 71.634-160 160-160 88.366 0 160 71.634 160 160 0 88.366-71.634 160-160 160-88.366 0-160-71.634-160-160zM256 310.199c82.953 0 150.199-67.246 150.199-150.199 0-82.953-67.246-150.199-150.199-150.199-82.953 0-150.199 67.246-150.199 150.199 0 82.953 67.246 150.199 150.199 150.199z" fill="#3c3b3b" fill-rule="nonzero" stroke="none" stroke-width="1" stroke-linecap="butt" stroke-linejoin="miter" stroke-miterlimit="10" stroke-dasharray="" stroke-dashoffset="0" font-family="none" font-weight="none" font-size="none" text-anchor="none" style="mix-blend-mode: normal" data-fill-palette-color="tertiary"></path></g><g transform="matrix(1,0,0,1,177.6864635999262,80)"><svg viewBox="0 0 156.62707280014757 160" height="160" width="156.62707280014757"><g><svg viewBox="0 0 257.28 262.8204643301053" height="160" width="156.62707280014757"><g><rect width="257.28" height="8.049843698526319" x="0" y="144.43457347368425" fill="#3c3b3b" opacity="1" stroke-width="0" stroke="transparent" fill-opacity="1" class="rect-o-0" data-fill-palette-color="primary" rx="1%" id="o-0" data-palette-color="#3c3b3b"></rect></g><g transform="matrix(1,0,0,1,0.6399999999999864,173.55730643536847)"><svg viewBox="0 0 256 89.26315789473686" height="89.26315789473686" width="256"><g><svg viewBox="0 0 256 89.26315789473686" height="89.26315789473686" width="256"><g><svg viewBox="0 0 256 89.26315789473686" height="89.26315789473686" width="256"><g transform="matrix(1,0,0,1,0,0)"><svg width="256" viewBox="2.5 -31.700000762939453 91.19999694824219 31.80000114440918" height="89.26315789473686" data-palette-color="#3c3b3b"><path d="M26.55-24.05Q24.4-25.6 22.85-26.33 21.3-27.05 19.25-27.05L19.25-27.05Q15.15-27.05 12.2-24.95L12.2-24.95Q9.95-23.3 8.85-20.65 7.75-18 7.75-14.7L7.75-14.7Q7.75-11.55 9.2-9.18 10.65-6.8 12.95-5.55 15.25-4.3 17.75-4.3L17.75-4.3Q20.25-4.3 22.08-5.08 23.9-5.85 25-7.1L25-7.1Q26.7-9.25 26.7-12.8L26.7-12.8Q26.7-13.3 25.9-13.5 25.1-13.7 23.6-13.7L23.6-13.7 20-13.65Q18.55-13.65 17.7-14.2 16.85-14.75 16.85-15.6L16.85-15.6Q16.85-16.8 17.65-17.38 18.45-17.95 19.8-17.95L19.8-17.95Q21.4-17.95 24.1-17.75L24.1-17.75Q26.8-17.55 28-17.55L28-17.55Q29.75-17.55 30.83-16.45 31.9-15.35 31.9-13.25L31.9-13.25Q31.9-11.3 31.05-8.7 30.2-6.1 28.65-4.05L28.65-4.05Q27.15-2.05 24.23-1.03 21.3 0 17.75 0L17.75 0Q14.8 0 12.05-0.95 9.3-1.9 7.45-3.6L7.45-3.6Q5.15-5.75 3.83-8.72 2.5-11.7 2.5-14.65L2.5-14.65Q2.5-18.95 4.53-23.03 6.55-27.1 10-29.35L10-29.35Q11.5-30.35 14.2-31 16.9-31.65 19.15-31.65L19.15-31.65Q22.65-31.65 25.3-30.58 27.95-29.5 29.35-27.5L29.35-27.5Q29.95-26.6 29.95-25.9L29.95-25.9Q29.95-25.1 29.25-24.4 28.55-23.7 27.85-23.7L27.85-23.7Q27.55-23.7 27.15-23.8 26.75-23.9 26.55-24.05L26.55-24.05ZM43.35-29Q43.35-27.55 43.25-25.15L43.25-25.15 43.2-21.9Q43.2-17.15 43.9-13.95L43.9-13.95Q44.9-9.45 46.9-7L46.9-7Q48.75-4.85 51.45-4.85L51.45-4.85Q53.55-4.85 55.2-6.13 56.85-7.4 57.75-9.3L57.75-9.3Q59.25-12.4 59.25-16.95L59.25-16.95Q59.25-19.7 58.9-23.45L58.9-23.45Q58.6-27.65 58.6-29.75L58.6-29.75Q58.6-30.85 59.9-31.18 61.2-31.5 62.6-31.5L62.6-31.5Q63.1-31.5 63.75-30.85 64.4-30.2 64.4-29.45L64.4-29.45Q64.4-27.95 64.25-26.6L64.25-26.6Q64.15-25.1 64.15-24.5L64.15-24.5Q64.15-22.6 64.35-19.2L64.35-19.2Q64.4-18.35 64.45-17.15 64.5-15.95 64.5-14.4L64.5-14.4Q64.5-11 62.87-7.63 61.25-4.25 58.35-2.08 55.45 0.1 51.8 0.1L51.8 0.1Q46.2 0.1 43.05-3.53 39.9-7.15 38.75-12.9L38.75-12.9Q38.1-16.2 37.92-19.8 37.75-23.4 37.75-29.45L37.75-29.45Q37.75-30.25 38.52-30.95 39.3-31.65 40.2-31.65L40.2-31.65Q43.35-31.65 43.35-29L43.35-29ZM93.7-9.05Q93.7-6.7 92.62-5.03 91.55-3.35 89.1-1.95L89.1-1.95Q87.45-0.95 85.25-0.45 83.05 0.05 80.8 0.05L80.8 0.05Q78.5 0.05 75.1-1.45L75.1-1.45Q72.65-2.65 71.22-4.3 69.8-5.95 69.8-7.9L69.8-7.9Q69.8-9.25 70.4-9.88 71-10.5 72.35-10.5L72.35-10.5Q73.05-10.5 73.8-9.93 74.55-9.35 74.7-8.8L74.7-8.8Q75.4-6.75 77.15-5.68 78.9-4.6 81.5-4.6L81.5-4.6Q84.5-4.6 86.52-5.7 88.55-6.8 88.55-8.65L88.55-8.65Q88.55-10.45 86.35-11.85 84.15-13.25 81.85-13.8L81.85-13.8Q78.55-14.7 76-15.95L76-15.95Q73.35-17.25 72.05-19.15 70.75-21.05 70.75-23.15L70.75-23.15Q70.75-25.1 72.1-27.13 73.45-29.15 75.3-30.05L75.3-30.05Q76.3-30.55 78.72-31.13 81.15-31.7 82.25-31.7L82.25-31.7Q83.7-31.7 85.45-31.35 87.2-31 88.3-30.35L88.3-30.35Q90.5-29.1 91.55-28.1 92.6-27.1 92.6-25.6L92.6-25.6Q92.6-24.7 91.92-24 91.25-23.3 89.6-23.3L89.6-23.3Q89.2-23.3 88.8-23.65 88.4-24 87.8-24.7L87.8-24.7Q87-25.75 86.25-26.1L86.25-26.1Q85.5-26.35 84.07-26.65 82.65-26.95 81.55-26.95L81.55-26.95Q80.35-26.95 79.05-26.45 77.75-25.95 76.87-25.03 76-24.1 76-22.9L76-22.9Q76-21.9 76.92-21.18 77.85-20.45 79.15-20L79.15-20Q80.65-19.4 82.4-18.95L82.4-18.95Q84.7-18.25 86.17-17.68 87.65-17.1 89.05-16.25L89.05-16.25Q91.5-14.8 92.6-13.28 93.7-11.75 93.7-9.05L93.7-9.05Z" opacity="1" transform="matrix(1,0,0,1,0,0)" fill="#3c3b3b" class="undefined-text-0" data-fill-palette-color="primary" id="text-0"></path></svg></g></svg></g></svg></g></svg></g><g transform="matrix(1,0,0,1,60.68949647221022,0)"><svg viewBox="0 0 135.90100705557953 123.36168421052635" height="123.36168421052635" width="135.90100705557953"><g><svg xmlns="http://www.w3.org/2000/svg" xmlns:xlink="http://www.w3.org/1999/xlink" version="1.1" x="0" y="0" viewBox="0 0 109.90800476074219 99.76700592041016" enable-background="new 0 0 109.909 99.768" xml:space="preserve" width="135.90100705557953" height="123.36168421052635" class="icon-icon-0" data-fill-palette-color="accent" id="icon-0"><path d="M77.892 72.209H22.443c-1.002 0-1.815 0.812-1.815 1.815v23.927c0 1.004 0.813 1.816 1.815 1.816h55.449c1.002 0 1.816-0.813 1.816-1.816V74.024C79.708 73.021 78.894 72.209 77.892 72.209zM78.386 79.964v2.641c0 0.184-0.234 0.331-0.522 0.331h-4.316c-0.289 0-0.523-0.147-0.523-0.331v-2.641c0-0.182 0.234-0.33 0.523-0.33h4.316C78.152 79.634 78.386 79.782 78.386 79.964zM71.702 90.36c0 0.183-0.146 0.331-0.327 0.331h-2.726c-0.181 0-0.328-0.148-0.328-0.331V87.72c0-0.182 0.147-0.329 0.328-0.329h2.726c0.181 0 0.327 0.147 0.327 0.329V90.36zM77.532 91.104c0.426 0 0.773 0.148 0.773 0.33v2.641c0 0.182-0.348 0.329-0.773 0.329h-6.375c-0.428 0-0.773-0.147-0.773-0.329v-2.641c0-0.182 0.346-0.33 0.773-0.33H77.532zM21.949 87.72c0-0.182 0.277-0.329 0.62-0.329h5.113c0.343 0 0.62 0.147 0.62 0.329v2.641c0 0.183-0.277 0.331-0.62 0.331h-5.113c-0.342 0-0.62-0.148-0.62-0.331V87.72zM21.865 86.483v-2.641c0-0.183 0.231-0.331 0.516-0.331h4.25c0.285 0 0.516 0.148 0.516 0.331v2.641c0 0.183-0.231 0.33-0.516 0.33h-4.25C22.096 86.813 21.865 86.666 21.865 86.483zM27.972 86.813c-0.182 0-0.33-0.147-0.33-0.33v-2.641c0-0.183 0.148-0.331 0.33-0.331h2.723c0.182 0 0.329 0.148 0.329 0.331v2.641c0 0.183-0.147 0.33-0.329 0.33H27.972zM28.797 87.72c0-0.182 0.147-0.329 0.33-0.329h2.723c0.182 0 0.33 0.147 0.33 0.329v2.641c0 0.183-0.148 0.331-0.33 0.331h-2.723c-0.183 0-0.33-0.148-0.33-0.331V87.72zM31.603 86.483v-2.641c0-0.183 0.148-0.331 0.33-0.331h2.723c0.183 0 0.33 0.148 0.33 0.331v2.641c0 0.183-0.147 0.33-0.33 0.33h-2.723C31.75 86.813 31.603 86.666 31.603 86.483zM30.777 91.434c0-0.182 0.147-0.33 0.331-0.33h2.723c0.182 0 0.33 0.148 0.33 0.33v2.641c0 0.182-0.148 0.329-0.33 0.329h-2.723c-0.183 0-0.331-0.147-0.331-0.329V91.434zM33.005 90.691c-0.182 0-0.33-0.148-0.33-0.331V87.72c0-0.182 0.148-0.329 0.33-0.329h2.723c0.183 0 0.331 0.147 0.331 0.329v2.641c0 0.183-0.148 0.331-0.331 0.331H33.005zM35.893 86.813c-0.183 0-0.33-0.147-0.33-0.33v-2.641c0-0.183 0.147-0.331 0.33-0.331h2.723c0.182 0 0.33 0.148 0.33 0.331v2.641c0 0.183-0.148 0.33-0.33 0.33H35.893zM36.635 87.72c0-0.182 0.147-0.329 0.33-0.329h2.723c0.183 0 0.331 0.147 0.331 0.329v2.641c0 0.183-0.148 0.331-0.331 0.331h-2.723c-0.183 0-0.33-0.148-0.33-0.331V87.72zM39.854 86.813c-0.184 0-0.331-0.147-0.331-0.33v-2.641c0-0.183 0.147-0.331 0.331-0.331h2.722c0.183 0 0.331 0.148 0.331 0.331v2.641c0 0.183-0.147 0.33-0.331 0.33H39.854zM40.596 87.72c0-0.182 0.148-0.329 0.33-0.329h2.723c0.182 0 0.329 0.147 0.329 0.329v2.641c0 0.183-0.147 0.331-0.329 0.331h-2.723c-0.182 0-0.33-0.148-0.33-0.331V87.72zM43.484 86.483v-2.641c0-0.183 0.148-0.331 0.33-0.331h2.724c0.182 0 0.329 0.148 0.329 0.331v2.641c0 0.183-0.147 0.33-0.329 0.33h-2.724C43.632 86.813 43.484 86.666 43.484 86.483zM42.659 91.434c0-0.182 0.148-0.33 0.33-0.33h2.724c0.182 0 0.33 0.148 0.33 0.33v2.641c0 0.182-0.148 0.329-0.33 0.329h-2.724c-0.181 0-0.33-0.147-0.33-0.329V91.434zM44.887 90.691c-0.183 0-0.33-0.148-0.33-0.331V87.72c0-0.182 0.147-0.329 0.33-0.329h2.722c0.183 0 0.331 0.147 0.331 0.329v2.641c0 0.183-0.148 0.331-0.331 0.331H44.887zM47.445 86.483v-2.641c0-0.183 0.147-0.331 0.33-0.331h2.723c0.183 0 0.33 0.148 0.33 0.331v2.641c0 0.183-0.147 0.33-0.33 0.33h-2.723C47.592 86.813 47.445 86.666 47.445 86.483zM46.619 91.434c0-0.182 0.147-0.33 0.331-0.33h2.722c0.184 0 0.331 0.148 0.331 0.33v2.641c0 0.182-0.147 0.329-0.331 0.329H46.95c-0.183 0-0.331-0.147-0.331-0.329V91.434zM48.847 90.691c-0.181 0-0.33-0.148-0.33-0.331V87.72c0-0.182 0.149-0.329 0.33-0.329h2.724c0.182 0 0.329 0.147 0.329 0.329v2.641c0 0.183-0.147 0.331-0.329 0.331H48.847zM54.458 83.512c0.183 0 0.332 0.148 0.332 0.331v2.641c0 0.183-0.149 0.33-0.332 0.33h-2.723c-0.183 0-0.33-0.147-0.33-0.33v-2.641c0-0.183 0.147-0.331 0.33-0.331H54.458zM53.468 82.604v-2.641c0-0.182 0.147-0.33 0.33-0.33h2.723c0.183 0 0.331 0.148 0.331 0.33v2.641c0 0.184-0.148 0.331-0.331 0.331h-2.723C53.616 82.936 53.468 82.788 53.468 82.604zM50.581 91.434c0-0.182 0.147-0.33 0.329-0.33h2.722c0.183 0 0.331 0.148 0.331 0.33v2.641c0 0.182-0.148 0.329-0.331 0.329H50.91c-0.182 0-0.329-0.147-0.329-0.329V91.434zM52.808 90.691c-0.184 0-0.33-0.148-0.33-0.331V87.72c0-0.182 0.146-0.329 0.33-0.329h2.723c0.182 0 0.33 0.147 0.33 0.329v2.641c0 0.183-0.148 0.331-0.33 0.331H52.808zM55.696 86.813c-0.183 0-0.329-0.147-0.329-0.33v-2.641c0-0.183 0.146-0.331 0.329-0.331h2.723c0.182 0 0.329 0.148 0.329 0.331v2.641c0 0.183-0.147 0.33-0.329 0.33H55.696zM62.378 83.512c0.184 0 0.332 0.148 0.332 0.331v2.641c0 0.183-0.148 0.33-0.332 0.33h-2.722c-0.182 0-0.33-0.147-0.33-0.33v-2.641c0-0.183 0.148-0.331 0.33-0.331H62.378zM61.389 82.604v-2.641c0-0.182 0.147-0.33 0.329-0.33h2.724c0.183 0 0.33 0.148 0.33 0.33v2.641c0 0.184-0.147 0.331-0.33 0.331h-2.724C61.537 82.936 61.389 82.788 61.389 82.604zM60.81 82.604c0 0.184-0.146 0.331-0.327 0.331h-2.725c-0.182 0-0.329-0.147-0.329-0.331v-2.641c0-0.182 0.147-0.33 0.329-0.33h2.725c0.181 0 0.327 0.148 0.327 0.33V82.604zM56.439 87.72c0-0.182 0.147-0.329 0.33-0.329h2.722c0.184 0 0.33 0.147 0.33 0.329v2.641c0 0.183-0.146 0.331-0.33 0.331h-2.722c-0.183 0-0.33-0.148-0.33-0.331V87.72zM58.5 91.434c0-0.182 0.148-0.33 0.331-0.33h2.723c0.183 0 0.33 0.148 0.33 0.33v2.641c0 0.182-0.147 0.329-0.33 0.329h-2.723c-0.183 0-0.331-0.147-0.331-0.329V91.434zM60.729 90.691c-0.183 0-0.33-0.148-0.33-0.331V87.72c0-0.182 0.147-0.329 0.33-0.329h2.724c0.183 0 0.33 0.147 0.33 0.329v2.641c0 0.183-0.147 0.331-0.33 0.331H60.729zM63.617 86.813c-0.182 0-0.33-0.147-0.33-0.33v-2.641c0-0.183 0.148-0.331 0.33-0.331h2.724c0.182 0 0.33 0.148 0.33 0.331v2.641c0 0.183-0.148 0.33-0.33 0.33H63.617zM65.351 82.604v-2.641c0-0.182 0.148-0.33 0.329-0.33h2.722c0.183 0 0.331 0.148 0.331 0.33v2.641c0 0.184-0.148 0.331-0.331 0.331H65.68C65.5 82.936 65.351 82.788 65.351 82.604zM64.36 87.72c0-0.182 0.147-0.329 0.331-0.329h2.722c0.182 0 0.331 0.147 0.331 0.329v2.641c0 0.183-0.149 0.331-0.331 0.331h-2.722c-0.184 0-0.331-0.148-0.331-0.331V87.72zM67.578 86.813c-0.184 0-0.33-0.147-0.33-0.33v-2.641c0-0.183 0.146-0.331 0.33-0.331H70.3c0.183 0 0.33 0.148 0.33 0.331v2.641c0 0.183-0.147 0.33-0.33 0.33H67.578zM69.31 82.604v-2.641c0-0.182 0.147-0.33 0.33-0.33h2.724c0.182 0 0.328 0.148 0.328 0.33v2.641c0 0.184-0.146 0.331-0.328 0.331H69.64C69.458 82.936 69.31 82.788 69.31 82.604zM71.539 86.813c-0.182 0-0.33-0.147-0.33-0.33v-2.641c0-0.183 0.148-0.331 0.33-0.331h2.724c0.182 0 0.33 0.148 0.33 0.331v2.641c0 0.183-0.148 0.33-0.33 0.33H71.539zM74.908 77.405c0-0.094 0.148-0.172 0.331-0.172h2.723c0.182 0 0.331 0.078 0.331 0.172v1.387c0 0.097-0.149 0.173-0.331 0.173h-2.723c-0.183 0-0.331-0.076-0.331-0.173V77.405zM70.837 77.405c0-0.094 0.147-0.172 0.33-0.172h2.723c0.184 0 0.33 0.078 0.33 0.172v1.387c0 0.097-0.146 0.173-0.33 0.173h-2.723c-0.183 0-0.33-0.076-0.33-0.173V77.405zM66.766 77.405c0-0.094 0.148-0.172 0.331-0.172h2.723c0.182 0 0.33 0.078 0.33 0.172v1.387c0 0.097-0.148 0.173-0.33 0.173h-2.723c-0.183 0-0.331-0.076-0.331-0.173V77.405zM62.696 77.405c0-0.094 0.148-0.172 0.33-0.172h2.723c0.183 0 0.331 0.078 0.331 0.172v1.387c0 0.097-0.148 0.173-0.331 0.173h-2.723c-0.182 0-0.33-0.076-0.33-0.173V77.405zM58.625 77.405c0-0.094 0.147-0.172 0.33-0.172h2.723c0.183 0 0.33 0.078 0.33 0.172v1.387c0 0.097-0.147 0.173-0.33 0.173h-2.723c-0.183 0-0.33-0.076-0.33-0.173V77.405zM54.554 77.405c0-0.094 0.148-0.172 0.331-0.172h2.723c0.183 0 0.33 0.078 0.33 0.172v1.387c0 0.097-0.147 0.173-0.33 0.173h-2.723c-0.182 0-0.331-0.076-0.331-0.173V77.405zM50.484 77.405c0-0.094 0.147-0.172 0.33-0.172h2.723c0.182 0 0.33 0.078 0.33 0.172v1.387c0 0.097-0.148 0.173-0.33 0.173h-2.723c-0.183 0-0.33-0.076-0.33-0.173V77.405zM52.561 79.634c0.181 0 0.329 0.148 0.329 0.33v2.641c0 0.184-0.147 0.331-0.329 0.331h-2.724c-0.182 0-0.33-0.147-0.33-0.331v-2.641c0-0.182 0.148-0.33 0.33-0.33H52.561zM46.413 77.405c0-0.094 0.148-0.172 0.33-0.172h2.724c0.182 0 0.329 0.078 0.329 0.172v1.387c0 0.097-0.147 0.173-0.329 0.173h-2.724c-0.181 0-0.33-0.076-0.33-0.173V77.405zM48.6 79.634c0.183 0 0.33 0.148 0.33 0.33v2.641c0 0.184-0.147 0.331-0.33 0.331h-2.723c-0.182 0-0.33-0.147-0.33-0.331v-2.641c0-0.182 0.148-0.33 0.33-0.33H48.6zM42.343 77.405c0-0.094 0.147-0.172 0.331-0.172h2.723c0.182 0 0.33 0.078 0.33 0.172v1.387c0 0.097-0.147 0.173-0.33 0.173h-2.723c-0.183 0-0.331-0.076-0.331-0.173V77.405zM44.639 79.634c0.183 0 0.33 0.148 0.33 0.33v2.641c0 0.184-0.147 0.331-0.33 0.331h-2.723c-0.183 0-0.33-0.147-0.33-0.331v-2.641c0-0.182 0.147-0.33 0.33-0.33H44.639zM38.492 77.405c0-0.094 0.148-0.172 0.33-0.172h2.724c0.181 0 0.329 0.078 0.329 0.172v1.387c0 0.097-0.148 0.173-0.329 0.173h-2.724c-0.182 0-0.33-0.076-0.33-0.173V77.405zM40.678 79.634c0.183 0 0.331 0.148 0.331 0.33v2.641c0 0.184-0.148 0.331-0.331 0.331h-2.723c-0.182 0-0.33-0.147-0.33-0.331v-2.641c0-0.182 0.147-0.33 0.33-0.33H40.678zM34.366 77.405c0-0.094 0.148-0.172 0.33-0.172h2.723c0.182 0 0.33 0.078 0.33 0.172v1.387c0 0.097-0.147 0.173-0.33 0.173h-2.723c-0.182 0-0.33-0.076-0.33-0.173V77.405zM33.665 79.964c0-0.182 0.147-0.33 0.331-0.33h2.723c0.182 0 0.33 0.148 0.33 0.33v2.641c0 0.184-0.148 0.331-0.33 0.331h-2.723c-0.183 0-0.331-0.147-0.331-0.331V79.964zM30.241 77.405c0-0.094 0.147-0.172 0.33-0.172h2.723c0.182 0 0.33 0.078 0.33 0.172v1.387c0 0.097-0.148 0.173-0.33 0.173h-2.723c-0.182 0-0.33-0.076-0.33-0.173V77.405zM29.705 79.964c0-0.182 0.148-0.33 0.33-0.33h2.723c0.183 0 0.33 0.148 0.33 0.33v2.641c0 0.184-0.147 0.331-0.33 0.331h-2.723c-0.182 0-0.33-0.147-0.33-0.331V79.964zM26.115 77.405c0-0.094 0.147-0.172 0.33-0.172h2.723c0.182 0 0.33 0.078 0.33 0.172v1.387c0 0.097-0.148 0.173-0.33 0.173h-2.723c-0.183 0-0.33-0.076-0.33-0.173V77.405zM25.744 79.964c0-0.182 0.148-0.33 0.329-0.33h2.724c0.182 0 0.33 0.148 0.33 0.33v2.641c0 0.184-0.148 0.331-0.33 0.331h-2.724c-0.181 0-0.329-0.147-0.329-0.331V79.964zM21.989 77.405c0-0.094 0.148-0.172 0.331-0.172h2.723c0.183 0 0.33 0.078 0.33 0.172v1.387c0 0.097-0.147 0.173-0.33 0.173H22.32c-0.183 0-0.331-0.076-0.331-0.173V77.405zM21.784 79.964c0-0.182 0.147-0.33 0.33-0.33h2.723c0.182 0 0.33 0.148 0.33 0.33v2.641c0 0.184-0.148 0.331-0.33 0.331h-2.723c-0.183 0-0.33-0.147-0.33-0.331V79.964zM25.166 98.175c0 0.195-0.148 0.354-0.33 0.354h-2.723c-0.183 0-0.33-0.159-0.33-0.354v-2.838c0-0.196 0.147-0.355 0.33-0.355h2.723c0.182 0 0.33 0.159 0.33 0.355V98.175zM29.127 98.175c0 0.195-0.148 0.354-0.33 0.354h-2.724c-0.181 0-0.329-0.159-0.329-0.354v-2.838c0-0.196 0.148-0.355 0.329-0.355h2.724c0.182 0 0.33 0.159 0.33 0.355V98.175zM22.745 94.403c-0.439 0-0.796-0.147-0.796-0.329v-2.641c0-0.182 0.356-0.33 0.796-0.33h6.575c0.44 0 0.797 0.148 0.797 0.33v2.641c0 0.182-0.357 0.329-0.797 0.329H22.745zM33.087 98.175c0 0.195-0.147 0.354-0.33 0.354h-2.723c-0.182 0-0.33-0.159-0.33-0.354v-2.838c0-0.196 0.148-0.355 0.33-0.355h2.723c0.183 0 0.33 0.159 0.33 0.355V98.175zM37.956 98.175c0 0.195-0.18 0.354-0.402 0.354h-3.321c-0.222 0-0.402-0.159-0.402-0.354v-2.838c0-0.196 0.18-0.355 0.402-0.355h3.321c0.223 0 0.402 0.159 0.402 0.355V98.175zM38.121 94.074c0 0.182-0.148 0.329-0.33 0.329h-2.723c-0.183 0-0.33-0.147-0.33-0.329v-2.641c0-0.182 0.147-0.33 0.33-0.33h2.723c0.182 0 0.33 0.148 0.33 0.33V94.074zM38.699 91.434c0-0.182 0.147-0.33 0.33-0.33h2.722c0.184 0 0.331 0.148 0.331 0.33v2.641c0 0.182-0.147 0.329-0.331 0.329h-2.722c-0.182 0-0.33-0.147-0.33-0.329V91.434zM57.594 98.256c0 0.182-0.148 0.329-0.33 0.329H39.056c-0.182 0-0.33-0.147-0.33-0.329v-2.862c0-0.182 0.148-0.329 0.33-0.329h18.208c0.182 0 0.33 0.147 0.33 0.329V98.256zM57.924 94.074c0 0.182-0.148 0.329-0.33 0.329h-2.724c-0.182 0-0.33-0.147-0.33-0.329v-2.641c0-0.182 0.147-0.33 0.33-0.33h2.724c0.182 0 0.33 0.148 0.33 0.33V94.074zM62.544 98.175c0 0.195-0.18 0.354-0.402 0.354h-3.321c-0.222 0-0.402-0.159-0.402-0.354v-2.838c0-0.196 0.181-0.355 0.402-0.355h3.321c0.223 0 0.402 0.159 0.402 0.355V98.175zM62.462 94.074v-2.641c0-0.182 0.146-0.33 0.329-0.33h2.724c0.182 0 0.329 0.148 0.329 0.33v2.641c0 0.182-0.147 0.329-0.329 0.329h-2.724C62.609 94.403 62.462 94.256 62.462 94.074zM66.587 98.175c0 0.195-0.147 0.354-0.33 0.354h-2.724c-0.182 0-0.329-0.159-0.329-0.354v-2.838c0-0.196 0.147-0.355 0.329-0.355h2.724c0.183 0 0.33 0.159 0.33 0.355V98.175zM66.422 94.074v-2.641c0-0.182 0.148-0.33 0.331-0.33h2.723c0.183 0 0.331 0.148 0.331 0.33v2.641c0 0.182-0.148 0.329-0.331 0.329h-2.723C66.571 94.403 66.422 94.256 66.422 94.074zM70.589 98.513c0 0.096-0.147 0.174-0.329 0.174h-2.723c-0.184 0-0.33-0.078-0.33-0.174v-1.386c0-0.097 0.146-0.174 0.33-0.174h2.723c0.182 0 0.329 0.077 0.329 0.174V98.513zM74.508 98.553c0 0.098-0.146 0.174-0.33 0.174h-2.723c-0.184 0-0.33-0.076-0.33-0.174v-1.385c0-0.096 0.146-0.173 0.33-0.173h2.723c0.184 0 0.33 0.077 0.33 0.173V98.553zM74.508 96.573c0 0.097-0.146 0.174-0.33 0.174h-2.723c-0.184 0-0.33-0.077-0.33-0.174v-1.385c0-0.097 0.146-0.174 0.33-0.174h2.723c0.184 0 0.33 0.077 0.33 0.174V96.573zM78.386 98.505c0 0.096-0.147 0.173-0.33 0.173h-2.723c-0.181 0-0.33-0.077-0.33-0.173v-1.386c0-0.098 0.149-0.173 0.33-0.173h2.723c0.183 0 0.33 0.075 0.33 0.173V98.505zM78.386 90.36c0 0.183-0.266 0.331-0.595 0.331h-4.915c-0.329 0-0.597-0.148-0.597-0.331V87.72c0-0.182 0.268-0.329 0.597-0.329h4.915c0.329 0 0.595 0.147 0.595 0.329V90.36zM78.552 86.483c0 0.183-0.147 0.33-0.33 0.33h-2.724c-0.183 0-0.33-0.147-0.33-0.33v-2.641c0-0.183 0.147-0.331 0.33-0.331h2.724c0.183 0 0.33 0.148 0.33 0.331V86.483z" fill="#202020" data-fill-palette-color="accent"></path><path d="M96.375 0H3.301C1.478 0 0 1.478 0 3.301v56.273c0 1.822 1.478 3.301 3.301 3.301h93.074c1.823 0 3.301-1.479 3.301-3.301V3.301C99.675 1.478 98.198 0 96.375 0zM93.272 56.122H6.404V6.751h86.868V56.122z" fill="#202020" data-fill-palette-color="accent"></path><path d="M39.606 68.702v-4.449h20.462v4.449c0 0.946-1.108 1.711-2.475 1.711H42.082C40.715 70.413 39.606 69.648 39.606 68.702z" fill="#202020" data-fill-palette-color="accent"></path><path d="M51.025 75.184c0.016-0.005 14.689-6.757 27.787-6.762l0 0c1.542 0 3.061 0.095 4.535 0.306l0 0c4.692 0.669 9.953 1.226 14.519 1.225l0 0c4.938 0.012 9.06-0.679 10.705-2.44l0 0c0.551-0.584 0.844-1.27 0.847-2.122l0 0c0.001-1.2-0.61-2.755-2.043-4.691l0 0C99.432 49.942 96.78 48.946 96.632 48.912l0 0 0 0c-0.005-0.002-0.008-0.002-0.008-0.002l0 0 0.029-0.108 0.075-0.373c0.141 0.044 2.604 0.578 11.042 11.978l0 0c1.462 1.981 2.136 3.614 2.138 4.983l0 0c0.002 0.971-0.353 1.799-0.98 2.46l0 0c-0.628 0.661-1.519 1.163-2.604 1.546l0 0c-2.17 0.761-5.139 1.05-8.459 1.05l0 0c-4.604 0-9.881-0.56-14.589-1.233l0 0c-1.446-0.205-2.943-0.298-4.465-0.298l0 0c-9.702-0.002-20.377 3.776-25.097 5.669l0 0c-1.575 0.629-2.482 1.045-2.484 1.046l0 0L51.025 75.184 51.025 75.184z" fill="#202020" data-fill-palette-color="accent"></path><path d="M92.434 77.643h-0.75c-2.762 0-5 2.238-5 5v7.75c0 2.762 2.238 5 5 5h0.75c2.762 0 5-2.238 5-5v-7.75C97.434 79.881 95.196 77.643 92.434 77.643zM92.059 83.309c-0.32 0-0.582-0.262-0.582-0.583s0.262-0.583 0.582-0.583c0.322 0 0.584 0.262 0.584 0.583S92.381 83.309 92.059 83.309z" fill="#202020" data-fill-palette-color="accent"></path></svg></g></svg></g><g></g></svg></g></svg></g></svg></g><defs></defs></svg><rect width="512" height="320" fill="none" stroke="none" visibility="hidden"></rect></g></svg></g></svg>